<?xml version="1.0" encoding="utf-8"?>
<!-- Generator: Adobe Illustrator 16.0.3, SVG Export Plug-In . SVG Version: 6.00 Build 0)  -->
<!DOCTYPE svg PUBLIC "-//W3C//DTD SVG 1.1//EN" "http://www.w3.org/Graphics/SVG/1.1/DTD/svg11.dtd">
<svg version="1.1" xmlns="http://www.w3.org/2000/svg" xmlns:xlink="http://www.w3.org/1999/xlink" x="0px" y="0px" width="80px"
	 height="80px" viewBox="0 0 80 80" enable-background="new 0 0 80 80" xml:space="preserve">
<g id="Capa_1" display="none">
	<g display="inline" opacity="0.3">
		<g>
			<path d="M-0.946,1.524c1.55,5.702,0.893,11.523,0.821,17.351c-0.076,6.206,0,12.418,0,18.625c0,12.103,1,24.163,1,36.25
				c0,1.935,3,1.935,3,0c0-12.699-1-25.375-1-38.091c0-6.113-0.056-12.229,0.019-18.341C2.963,11.699,3.438,6.216,1.946,0.726
				C1.439-1.139-1.455-0.346-0.946,1.524L-0.946,1.524z"/>
		</g>
	</g>
	<g display="inline" opacity="0.3">
		<g>
			<path d="M0.25,73.125c0,3.417,0,6.833,0,10.25c0,1.935,3,1.935,3,0c0-3.417,0-6.833,0-10.25C3.25,71.19,0.25,71.19,0.25,73.125
				L0.25,73.125z"/>
		</g>
	</g>
	<g display="inline" opacity="0.3">
		<g>
			<path d="M0.75,80.5c14.34-0.094,28.589-1.069,42.945-0.825c13.628,0.232,27.182-1.05,40.805-1.05c1.935,0,1.935-3,0-3
				c-13.623,0-27.177,1.259-40.805,1.05C29.34,76.455,15.09,77.406,0.75,77.5C-1.184,77.513-1.185,80.513,0.75,80.5L0.75,80.5z"/>
		</g>
	</g>
	<g display="inline" opacity="0.3">
		<g>
			<path d="M10.399,62.294c0.043,4.421,0.613,8.881-0.079,13.277c-0.298,1.892,2.593,2.704,2.893,0.797
				c0.738-4.689,0.232-9.357,0.187-14.074C13.38,60.36,10.38,60.358,10.399,62.294L10.399,62.294z"/>
		</g>
	</g>
	<g display="inline" opacity="0.3">
		<g>
			<path d="M12.5,61.794c1.519-0.156,3.036-0.269,4.564-0.257c2.447,0.019,1.411,2.785,1.192,4.539
				c-0.259,2.073,0.012,4.164,0.058,6.241c-0.095,0.665,0.072,0.655,0.501-0.03c-0.453,0.138-0.915,0.183-1.384,0.135
				c-1.245-0.014-2.504-0.368-3.734-0.549c-1.892-0.277-2.706,2.612-0.798,2.893c2.045,0.3,5.992,1.635,7.739-0.118
				c0.682-0.685,0.701-1.41,0.676-2.33c-0.057-2.085-0.273-4.159-0.058-6.241c0.183-1.776,1.214-5.866-1.046-6.906
				c-2.343-1.078-5.227-0.632-7.71-0.376C10.595,58.99,10.576,61.992,12.5,61.794L12.5,61.794z"/>
		</g>
	</g>
	<g display="inline" opacity="0.3">
		<g>
			<path d="M22.236,53.948c2.31,3.211,0.917,7.885,1.392,11.59c0.26,2.026,0.366,4.025,0.396,6.067
				c0.012,0.817-0.302,2.873,0.307,3.678c1.273,1.683,3.179,1.113,5.094,1.045c1.655-0.059,5.085,0.563,6.334-0.903
				c1.742-2.047,0.709-6.392,0.709-8.768c0-4.274,0.718-9.252,0-13.45c-0.824-4.829-9.745-1.779-12.803-1.268
				c-1.905,0.318-1.094,3.209,0.798,2.893c1.89-0.316,3.78-0.438,5.665-0.785c1.109-0.204,2.208-0.403,3.335-0.475
				c-0.03,0.002,0.005,4.204,0.005,4.467c0,3.445,0,6.89,0,10.335c0,1.552,0.295,3.401,0.054,4.934
				c0.195-0.063,0.391-0.124,0.586-0.186c-0.703,0.041-1.405,0.092-2.107,0.154c-0.724,0.058-4.967,0.364-4.974-0.154
				c-0.042-2.902-0.16-5.717-0.529-8.599c-0.529-4.125,0.95-8.446-1.671-12.089C23.708,50.88,21.104,52.375,22.236,53.948
				L22.236,53.948z"/>
		</g>
	</g>
	<g display="inline" opacity="0.3">
		<g>
			<path d="M39.112,45.48c-0.043,5.459-0.338,10.9,0.104,16.351c0.208,2.56,0.791,5.085,1.307,7.594
				c0.359,1.744,0.045,4.044,0.805,5.64c1.037,2.179,3.257,1.707,5.188,1.097c2.686-0.851,6.503,0.652,8.229-1.956
				c0.368-0.557,0.264-1.475,0.131-2.079c-0.604-2.751-0.481-5.521-0.459-8.317c0.045-5.752-0.12-11.513,0.041-17.263
				c0.053-1.886-0.021-3.902-2.082-4.442c-3.593-0.941-8.688-0.575-12.272,0.282c-1.881,0.449-1.083,3.343,0.798,2.893
				c2.871-0.687,5.686-0.479,8.598-0.304c3.159,0.188,1.917,5.812,1.917,8.267c0,6.033-0.836,12.735,0.344,18.668
				c0.219,1.099-3.959,0.896-4.855,1.024c-1.252,0.179-2.747,1.585-2.851-0.3c-0.073-1.332-0.396-2.699-0.64-4.006
				c-1.452-7.837-1.366-15.22-1.304-23.147C42.128,43.545,39.127,43.547,39.112,45.48L39.112,45.48z"/>
		</g>
	</g>
	<g display="inline" opacity="0.3">
		<g>
			<path d="M56.146,37.369c1.479,2.26,0.833,5.944,0.675,8.5c-0.191,3.103-0.227,6.184-0.258,9.294
				c-0.039,3.956,0.021,7.895,0.267,11.843c0.145,2.315-0.485,4.612,0.096,6.886c0.931,3.646,7.635,1.828,9.957,1.688
				c2.223-0.135,4.237,0.904,6.201-0.542c1.557-1.146,1.435-3.56,1.374-5.253c-0.267-7.47-1.675-14.881-1.604-22.348
				c0.041-4.244,1.278-10.83-0.953-14.655c-0.71-1.218-2.58-1.58-3.835-1.653c-2.564-0.149-4.956-0.705-7.481-0.947
				c-5.435-0.521-5.269,4.694-5.176,8.771c0.044,1.932,3.044,1.936,3,0c-0.04-1.742-0.895-6.43,3.107-5.524
				c1.528,0.346,2.806,0.617,4.368,0.622c5.166,0.017,4.046,4.176,3.998,8.198c-0.114,9.643,1.273,19.08,1.617,28.701
				c0.078,2.2-11.803,2.969-11.857,0.686c-0.116-4.831-0.099-9.755-0.093-14.606c0.006-4.13,0.091-8.227,0.345-12.347
				c0.176-2.834,0.475-6.333-1.158-8.828C57.682,34.243,55.083,35.745,56.146,37.369L56.146,37.369z"/>
		</g>
	</g>
	<g display="inline" opacity="0.3">
		<g>
			<path d="M87.5,60.25c1.935,0,1.935-3,0-3S85.565,60.25,87.5,60.25L87.5,60.25z"/>
		</g>
	</g>
	<g display="inline" opacity="0.3">
		<g>
			<path d="M59.375,30.25c3.258,0.042,6.488,0.577,9.75,0.5c1.932-0.045,1.936-3.045,0-3c-3.262,0.077-6.492-0.458-9.75-0.5
				C57.439,27.225,57.442,30.225,59.375,30.25L59.375,30.25z"/>
		</g>
	</g>
	<g display="inline" opacity="0.3">
		<g>
			<path d="M60.875,26.625c2.37,0.24,4.747,0.375,7.125,0.5c1.935,0.102,1.924-2.898,0-3c-2.378-0.125-4.755-0.26-7.125-0.5
				C58.95,23.43,58.97,26.432,60.875,26.625L60.875,26.625z"/>
		</g>
	</g>
	<g display="inline" opacity="0.3">
		<g>
			<path d="M65.821,21.976C64.53,15.504,65.587,8.894,64.75,2.375c-0.243-1.891-3.246-1.915-3,0
				c0.872,6.792-0.168,13.647,1.179,20.399C63.307,24.67,66.198,23.865,65.821,21.976L65.821,21.976z"/>
		</g>
	</g>
	<g display="inline" opacity="0.3">
		<g>
			<path d="M63.75,3.875c1.835,0,3.67-0.014,5.505,0.005c0.93,0.01,0.363-0.203,0.457,0.19c0.238,1.003,0.313,2.062,0.418,3.084
				c0.103,0.99,0.106,1.977,0.066,2.97c-0.032,0.412-0.075,0.821-0.13,1.23c-0.108,0.891,1.138-0.631,0.035-0.177
				c-1.429,0.588-3.476-0.011-4.977-0.054c-1.936-0.055-1.931,2.945,0,3c2.457,0.069,4.585,0.482,6.905-0.531
				c1.851-0.808,1.212-5.005,1.1-6.439C73,5.503,73.066,2.504,71.493,1.424c-0.662-0.455-1.458-0.508-2.238-0.543
				c-1.827-0.083-3.676-0.005-5.505-0.005C61.815,0.875,61.815,3.875,63.75,3.875L63.75,3.875z"/>
		</g>
	</g>
	<g display="inline" opacity="0.3">
		<g>
			<path d="M72.375,8.625c1.917,0,3.833,0,5.75,0c-0.5-0.5-1-1-1.5-1.5c0.273,2.103-1.075,3.837-1.446,5.851
				c-0.366,1.986,0.608,3.813,1.125,5.673c0.349-0.615,0.698-1.23,1.048-1.845c-1.938,0.391-3.924,0.311-5.853-0.092
				c-1.94-0.405-1.905-1.624-1.999-3.336c-0.104-1.924-3.105-1.934-3,0c0.128,2.344,0.372,4.597,2.697,5.741
				c2.601,1.279,6.195,1.136,8.951,0.581c0.801-0.161,1.255-1.099,1.048-1.845c-0.599-2.154-1.43-3.711-0.596-5.939
				c0.607-1.625,1.255-3.012,1.024-4.787c-0.105-0.811-0.603-1.5-1.5-1.5c-1.917,0-3.833,0-5.75,0
				C70.44,5.625,70.44,8.625,72.375,8.625L72.375,8.625z"/>
		</g>
	</g>
	<g display="inline" opacity="0.3">
		<g>
			<path d="M39.625,31.625c0.043-5.504-0.802-10.957-0.875-16.457c-0.025-1.933-3.026-1.936-3,0
				c0.073,5.5,0.918,10.953,0.875,16.457C36.61,33.56,39.61,33.559,39.625,31.625L39.625,31.625z"/>
		</g>
	</g>
	<g display="inline" opacity="0.3">
		<g>
			<path d="M35.368,13.873c-1.893,0.872-3.478,2.149-5.129,3.399c-1.454,1.1-3.18,1.858-4.424,3.214
				c-2.89,3.149,2.214,5.899,4.125,7.95c1.321,1.418,3.438-0.708,2.121-2.121c-1.038-1.114-2.118-2.171-3.25-3.189
				c-0.191-0.176-0.382-0.352-0.573-0.527c-0.438-0.584-0.575-0.521-0.412,0.192c0.34-0.683,1.133-1.084,1.746-1.471
				c2.477-1.561,4.638-3.625,7.311-4.856C38.638,15.654,37.112,13.069,35.368,13.873L35.368,13.873z"/>
		</g>
	</g>
	<g display="inline" opacity="0.3">
		<g>
			<path d="M36.851,16.614c2.09,0.346,3.821,1.551,5.585,2.655c1.793,1.122,3.738,2.003,5.649,2.901
				c0.677,0.318,1.239,0.218,1.817-0.235c1.593-1.249,2.636-2.924,3.907-4.471c1.219-1.481-0.892-3.617-2.121-2.121
				c-1.269,1.542-2.321,3.227-3.907,4.471c0.605-0.078,1.212-0.156,1.817-0.235c-2.167-1.018-4.306-2.06-6.337-3.331
				c-1.755-1.099-3.544-2.185-5.614-2.527C35.757,13.409,34.946,16.3,36.851,16.614L36.851,16.614z"/>
		</g>
	</g>
	<g display="inline" opacity="0.3">
		<g>
			<path d="M29.955,1.5c-2.618,3.468-1.422,8.688,1.55,11.537c3.036,2.91,8.793,2.562,11.732-0.193
				c3.199-2.998,3.039-8.4-0.298-11.118c-3.613-2.942-8.871-2.673-12.374,0.212C29.07,3.17,31.205,5.28,32.686,4.06
				c2.319-1.91,5.451-1.774,7.951-0.312c2.876,1.682,2.232,5.706-0.143,7.525c-1.937,1.484-5.624,0.834-7.271-0.745
				c-1.947-1.867-2.277-5.393-0.676-7.514C33.712,1.469,31.105-0.023,29.955,1.5L29.955,1.5z"/>
		</g>
	</g>
	<g display="inline" opacity="0.3">
		<g>
			<path d="M36.167,32.333c0.033,4.652-2.027,9.589-3.962,13.743c0.786-0.102,1.571-0.202,2.356-0.304
				c-2.224-1.815-3.408-4.659-6.44-5.31c-2.546-0.546-3.29,2.467-4.249,4.113c-0.975,1.675,1.618,3.185,2.591,1.514
				c0.829-1.425,0.923-3.341,2.719-1.735c1.204,1.077,1.991,2.505,3.258,3.539c0.682,0.557,1.913,0.647,2.356-0.304
				c2.172-4.661,4.408-10.033,4.372-15.256C39.153,30.399,36.153,30.398,36.167,32.333L36.167,32.333z"/>
		</g>
	</g>
	<g display="inline" opacity="0.3">
		<g>
			<path d="M38.243,32.129c2.644,1.221,5.321,2.381,7.76,3.989c2.572,1.696,0.554,5.925,0.051,8.316
				c-0.165,0.782,0.219,1.641,1.048,1.845c1.766,0.436,2.97-0.067,4.732-0.279c1.896-0.229,1.918-3.231,0-3
				c-1.236,0.148-2.719,0.687-3.936,0.387c0.35,0.615,0.699,1.23,1.048,1.845c0.68-3.23,2.141-6.68,0.555-9.857
				c-0.703-1.409-2.731-2.357-4.017-3.081c-1.845-1.038-3.808-1.869-5.728-2.756C38.013,28.732,36.488,31.318,38.243,32.129
				L38.243,32.129z"/>
		</g>
	</g>
	<g display="inline" opacity="0.3">
		<g>
			<path d="M35.5,30.5c0,0.556,0,1.111,0,1.667c0,1.935,3,1.935,3,0c0-0.556,0-1.111,0-1.667C38.5,28.565,35.5,28.565,35.5,30.5
				L35.5,30.5z"/>
		</g>
	</g>
</g>
<g id="Capa_3">
	<g opacity="0.7">
		<g>
			<path fill="#E20E0E" d="M65.482,6.09c1.207-0.205,2.474-0.258,3.692-0.156c0.653,0.055-0.348-0.365,0.413-0.928
				c0.189-0.14-0.246,0.074-0.226,0.071c-0.279,0.034-0.563,0.035-0.844,0.039c-1.014,0.014-2.138-0.142-3.111,0.213
				c-1.209,0.44-1.789,1.696-1.294,2.909c0.504,1.234,1.659,1.655,2.922,1.523c0.564-0.059,1.121-0.173,1.679-0.275
				c0.217-0.04,0.424-0.057,0.645-0.065c0.307-0.011,0.087,0.025-0.1-0.229c-0.016-0.022-0.003,0.104-0.007,0.121
				c0.077-0.372,0.562-0.424,0.099-0.43c-0.619-0.008-1.236-0.146-1.854-0.187c-1.438-0.096-2.553,0.594-3.061,1.932
				c-0.228,0.599,0.138,1.407,0.689,1.694c1.573,0.819,3.206,0.674,4.923,0.648c1.933-0.029,1.936-3.029,0-3
				c-1.085,0.017-2.408,0.282-3.409-0.239c0.23,0.565,0.46,1.129,0.689,1.694c-0.128,0.338-0.485,0.28-0.055,0.265
				c0.307-0.011,0.619,0.035,0.923,0.071c0.747,0.087,1.403,0.139,2.153,0.033c1.667-0.235,2.18-2.225,1.732-3.597
				c-0.476-1.458-1.95-1.895-3.337-1.726c-0.64,0.078-1.269,0.212-1.904,0.315c0.023-0.004-0.56-0.021-0.307,0.021
				c0.85,0.144,0.166,1.234-0.2,1.367c0.723-0.263,2.235,0.001,3.222-0.121c1.424-0.176,2.597-0.911,2.662-2.468
				c0.149-3.584-5.389-2.752-7.532-2.388C62.781,3.521,63.591,6.413,65.482,6.09L65.482,6.09z"/>
		</g>
	</g>
	<g opacity="0.7">
		<g>
			<path fill="#AA0B0B" d="M72.707,10.133c0.863,0.021,2.577-0.67,3.32-0.205c-0.102-0.786-0.202-1.571-0.304-2.356
				c-0.939,0.795-2.147,1.188-3.242,1.715c-0.993,0.478-0.967,2.105,0,2.591c1.075,0.54,2.328,0.589,3.368,1.152
				c-0.102-0.786-0.202-1.571-0.304-2.356c-0.791,0.946-1.664,1.528-2.928,1.511c-1.659-0.022-2.092,2.646-0.398,2.946
				c0.881,0.157,1.723,0.158,2.614,0.142c1.767-0.032,1.946-2.372,0.398-2.946c-0.317-0.118-0.462-0.235-0.668-0.5
				c-0.354,0.854-0.707,1.707-1.061,2.561c1.141-0.004,2.271,0.72,3.324,1.099c-0.12-0.914-0.239-1.828-0.358-2.742
				c-0.688,0.492-1.763,0.332-2.56,0.305c-0.991-0.033-1.985-0.148-2.977-0.066c-1.914,0.158-1.93,3.159,0,3
				c2.217-0.183,5.09,0.754,7.05-0.647c1.081-0.773,0.914-2.284-0.358-2.742c-1.359-0.489-2.639-1.212-4.121-1.206
				c-1.432,0.005-1.82,1.578-1.061,2.561c0.512,0.662,1.226,0.988,1.992,1.272c0.133-0.982,0.266-1.964,0.398-2.946
				c-0.603,0.011-1.22,0.071-1.817-0.035c-0.133,0.982-0.266,1.964-0.398,2.946c2.001,0.027,3.772-0.863,5.049-2.39
				c0.596-0.712,0.606-1.863-0.304-2.356c-1.071-0.58-2.298-0.615-3.368-1.152c0,0.864,0,1.727,0,2.591
				c1.366-0.657,2.68-1.193,3.85-2.185c0.765-0.647,0.46-1.877-0.304-2.356c-1.53-0.959-3.19-0.165-4.834-0.205
				C70.771,7.086,70.775,10.086,72.707,10.133L72.707,10.133z"/>
		</g>
	</g>
	<g opacity="0.7">
		<g>
			<path fill="#F4B373" d="M33,7.937c0.594-1.203,2.125-1.895,3.313-2.395c0.412-0.174,0.701-0.199,1.146-0.22
				c0.722-0.034,1.115,0.353,0.58-0.386c-0.05-0.385-0.101-0.771-0.151-1.156c0.414-0.507,0.255-0.554-0.476-0.141
				c-0.58,0.161-1.205,0.215-1.794,0.339C34.8,4.148,34.006,4.636,33.366,5.15c-1.126,0.904-2.835,2.364-2.379,4.021
				c0.455,1.654,2.778,1.55,3.979,0.919c0.964-0.506,1.793-1.203,2.732-1.752c1.25-0.732,2.945-0.741,4.341-0.897
				c1.12-0.125,2.216-1.646,1.061-2.561c-2.226-1.763-4.341-0.296-6.362,1.065c-1.715,1.155-5.031,1.178-5.687,3.562
				c-0.636,2.313,2.382,2.811,3.949,2.863c1.067,0.036,1.997-0.153,2.932-0.653c0.587-0.313,2.943-2.528,3.593-1.918
				c-0.146-0.354-0.293-0.707-0.439-1.061c0.011,0.483-2.248,1.085-2.598,1.17c-1.288,0.316-2.718,0.338-4.026,0.181
				c-1.918-0.23-1.896,2.772,0,3c3.139,0.377,6.682-0.26,8.97-2.562c0.689-0.694,1.012-2.102,0.215-2.85
				c-1.027-0.964-2.046-0.924-3.374-0.661c-1.224,0.243-2.248,0.825-3.218,1.58c-0.649,0.505-0.862,0.726-1.645,0.769
				c-0.276,0.009-0.552,0.006-0.828-0.01c-0.139-0.012-0.277-0.023-0.417-0.035c-0.661-0.264-0.766,0.128-0.315,1.178
				c0.75-0.893,2.728-1.146,3.775-1.62C38.129,8.649,40.528,6.645,40.978,7c0.354-0.854,0.707-1.707,1.061-2.561
				c-1.439,0.162-2.869,0.296-4.273,0.664c-0.509,0.133-4.491,2.408-4.271,2.608c0.146,0.354,0.293,0.707,0.439,1.061
				c-0.083-0.921,2.452-1.896,3.064-2.024c1.043-0.218,2.026-0.331,2.921-0.958c1.266-0.888,1.17-2.823-0.444-3.266
				c-3.132-0.858-7.617,0.966-9.065,3.899C29.556,8.151,32.143,9.671,33,7.937L33,7.937z"/>
		</g>
	</g>
	<g opacity="0.7">
		<g>
			<path fill="#A8723E" d="M40.263,4.287c0.011,1.798,0.081,3.52-0.767,5.167c-0.793,1.542-2.038,2.786-3.341,3.9
				c-1.246,1.065,0.121,2.753,1.459,2.507c3.077-0.566,4.67-4.047,5.594-6.697c0.639-1.832-2.26-2.612-2.893-0.798
				c-0.578,1.656-1.56,4.245-3.5,4.602c0.487,0.835,0.973,1.671,1.459,2.507c1.522-1.301,2.802-2.775,3.811-4.507
				c1.195-2.056,1.189-4.379,1.176-6.681C43.251,2.353,40.251,2.352,40.263,4.287L40.263,4.287z"/>
		</g>
	</g>
	<g opacity="0.7">
		<g>
			<path fill="#63A83E" d="M13.466,60.577c1.112-0.015,2.216,0.034,3.325,0.118c0.555,0.042,1.109,0.104,1.663,0.166
				c0.068-0.441,0.137-0.882,0.205-1.322c-0.252,0.042-0.507,0.06-0.763,0.054c-1.413,0.036-2.828-0.359-4.144,0.317
				c-1.608,0.827-1.172,3.148,0.173,3.937c1.675,0.981,4.273,0.632,6.136,1.021c-0.119-0.914-0.239-1.827-0.358-2.741
				c-0.819,0.395-1.503,1.013-2.434,1.125c-1.178,0.143-2.404-0.009-3.586-0.027c-1.775-0.027-1.933,2.393-0.399,2.946
				c1.174,0.424,2.322,0.83,3.559,1.02c1.164,0.179,2.386-0.12,3.522,0.11c-0.299-0.734-0.598-1.469-0.896-2.203
				c-1.02,1.548-3.844,0.805-5.395,0.777c-1.936-0.034-1.932,2.966,0,3c2.975,0.053,6.104,0.593,7.985-2.264
				c0.511-0.775,0.027-2.016-0.896-2.203c-1.131-0.229-2.231-0.08-3.374-0.114c-1.271-0.037-2.529-0.591-3.707-1.016
				c-0.133,0.982-0.266,1.964-0.399,2.946c1.397,0.021,2.779,0.125,4.17-0.043c1.292-0.156,2.226-0.916,3.363-1.465
				c1.155-0.557,0.875-2.484-0.358-2.741c-1.048-0.219-2.156-0.402-3.223-0.488c-0.425-0.034-0.851-0.058-1.276-0.084
				c-0.316-0.011-0.625-0.063-0.926-0.154c-0.384,0.947-0.239,1.365,0.437,1.255c1.537,0.052,3.146,0.318,4.547-0.483
				c1.592-0.91,1.23-3.168-0.329-3.827c-1.887-0.798-4.605-0.642-6.623-0.615C11.533,57.602,11.531,60.603,13.466,60.577
				L13.466,60.577z"/>
		</g>
	</g>
	<g opacity="0.7">
		<g>
			<path fill="#63A83E" d="M29.757,54.234c1.088,0.023,2.171,0.077,3.258,0.131c0.551,0.027,2.427,0.552,2.01-0.211
				c0.078-0.605,0.156-1.212,0.234-1.817c-0.65,0.742-3.14,0.045-4.125,0.217c-1.089,0.189-1.743,0.59-2.282,1.553
				c-0.501,0.895-0.017,1.873,0.896,2.203c1.312,0.474,2.65,0.449,4.034,0.37c0.23-0.019,0.461-0.037,0.692-0.055
				c1.042,0.209,1.425-0.395,1.147-1.813c-0.466,0.054-0.959,0.001-1.426-0.024c-1.907-0.105-4.612-1.042-5.653,1.18
				c-0.856,1.826,1.105,2.873,2.629,3.003c0.865,0.074,1.672,0.067,2.528-0.072c0.172-0.039,0.343-0.077,0.515-0.115
				c1.047-0.037,1.477-0.771,1.289-2.202c-0.525,0.215-1.401,0.047-1.951,0.029c-1.622-0.051-3.825-0.442-5.116,0.798
				c-1.16,1.114-0.516,3.194,1.002,3.556c1.814,0.433,3.719,0.026,5.561,0.065c1.169,0.025,1.011-1.633,0.026-1.971
				c-0.524-0.181-1.023-0.427-1.537-0.632c-1.084-0.434-2.195-0.441-3.326-0.188c-1.708,0.383-3.089,2.94-2.169,4.51
				c0.415,0.708,1.211,0.899,1.965,0.913c0.463,0.008,0.945-0.187,1.37-0.34c0.276-0.1,4.163-2.707,2.28-2.646
				c-1.889,0.062-3.827-0.779-4.999,1.204c-1.099,1.859,0.832,4.132,2.805,3.643c1.088-0.27,2.092-0.775,3.148-1.146
				c0.206-0.063,0.412-0.127,0.619-0.19c1.26,0.046,1.399-0.637,0.417-2.047c-0.461,0.176-0.965,0.268-1.444,0.377
				c-1.943,0.447-4.372,0.549-5.921,1.946c-1.358,1.226-0.125,3.118,1.354,3.332c0.972,0.141,1.971-0.117,2.906-0.37
				c1.236-0.335,4.565-1.155,1.021-0.971c-1.338,0.069-2.631-0.307-3.896,0.213c-1.764,0.725-0.992,3.628,0.798,2.893
				c2.751-1.13,5.496,0.848,7.48-2.154c1.411-2.133-1.153-3.472-2.844-3.5c-1.022-0.017-2.114,0.267-3.088,0.547
				c-0.416,0.119-0.83,0.226-1.251,0.322c-0.053,0.563-0.105,1.124-0.158,1.687c0.315-0.119,0.635-0.22,0.961-0.302
				c1.9-0.54,4.603-0.459,6.176-1.792c1.16-0.984,0.704-2.828-0.771-3.233c-1.041-0.286-2.163,0.045-3.155,0.351
				c-0.67,0.206-4.271,1.953-2.128,2.015c1.508,0.043,3.82,0.715,4.375-1.299c0.686-2.494-2.707-3.158-4.318-2.354
				c-0.553,0.275-1.079,0.553-1.661,0.762c0.249-0.089,2.2,0.519,2.766,0.759c0.927,0.393,1.86,0.836,2.871,0.955
				c1.715,0.202,3.181-1.352,2.201-3.024c-0.847-1.445-2.947-1.306-4.366-1.248c-0.993,0.041-1.978,0.131-2.973,0.089
				c-0.065,0.501-0.13,1.001-0.196,1.502c0.3-0.068,0.605-0.098,0.913-0.088c0.765-0.029,1.539,0.029,2.303,0.059
				c1.316,0.051,3.702,0.269,4.167-1.423c0.639-2.321-2.177-2.626-3.709-2.42c-1.061,0.144-1.872,0.355-2.963,0.166
				c0.225,0.523,0.45,1.047,0.675,1.57c0.462,0.064,0.924,0.128,1.386,0.189c0.367,0.042,0.72,0.069,1.086,0.095
				c1.511,0.103,3.953,0.065,3.875-2.031c-0.125-3.323-5.683-1.675-7.523-2.34c0.299,0.734,0.598,1.469,0.896,2.203
				c0.271-0.484,3.572-0.108,4.091-0.169c0.768-0.089,1.346-0.423,1.846-0.993c0.458-0.522,0.577-1.194,0.235-1.817
				c-1.166-2.129-5.852-1.362-7.858-1.406C27.821,51.192,27.825,54.192,29.757,54.234L29.757,54.234z"/>
		</g>
	</g>
	<g opacity="0.7">
		<g>
			<path fill="#63A83E" d="M45.653,47.065c1.151-0.124,3.801-1.11,4.57-0.091c0.299-0.734,0.598-1.469,0.896-2.203
				c-2.009,0.714-4.386-0.176-6.137,1.106c-0.974,0.713-1.02,2.414,0.358,2.741c1.8,0.428,4.133-0.305,5.776,0.536
				c-0.18-0.684-0.358-1.368-0.538-2.052c-0.208,0.319-3.83-0.318-4.728,0.208c-0.705,0.412-1.134,1.417-1.134,2.207
				c0,3.725,6.376,1.041,6.432,1.209c0.349-0.615,0.698-1.23,1.047-1.846c-2.278,0.588-6.896-0.895-8.186,2.053
				c-0.302,0.688-0.228,1.228,0.234,1.817c1.785,2.279,4.753-0.162,6.732,1.016c0.119-0.914,0.238-1.827,0.358-2.741
				c-2.262,0.642-4.292-0.502-6.361,0.824c-0.515,0.33-0.949,1.064-0.689,1.693c0.934,2.255,2.931,1.855,5.067,1.548
				c1.861-1.262,2.221-1.911,1.079-1.947c-0.759-0.09-1.514-0.18-2.275-0.244c-1.257-0.106-2.222,0.163-3.173,0.944
				c-1.075,0.883-0.226,2.695,0.929,2.989c2.411,0.612,5.297-0.729,7.553,0.213c-0.367-0.482-0.734-0.964-1.102-1.446
				c-0.062-1.431-5.441-1.784-6.45-1.717c-1.153,0.077-2.17,1.067-2.47,2.156c-1.271,4.626,5.841,1.52,6.654,2.453
				c-0.078-0.605-0.156-1.211-0.234-1.817c-0.089,0.188-4.898-1.412-4.623,1.76c0.107,1.23,0.325,1.64,1.394,2.283
				c0.593,0.358,2.917-0.4,2.911-0.408c-0.078-0.605-0.156-1.212-0.234-1.817c0.3-0.637-1.576-0.38-2.242,0.174
				c-0.773,0.643-2.142,2.021-2.137,3.126c0.007,1.476-0.562,4.608,0.616,5.832c1.642,1.704,3.466,1.115,5.745,1.498
				c1.019,0.171,1.804-0.409,1.898-1.446c0.202-2.216-0.162-4.888-0.575-7.045c-0.221-1.154-0.497-1.548-1.582-1.962
				c-2.056-0.784-5.018,2.144-5.08,4.072c-0.05,1.539,0.019,5.968,2.921,4.991c2.54-0.854,2.511-3.153,2.177-5.494
				c-0.271-1.909-3.162-1.094-2.893,0.797c0.511,3.588,0.664-0.382,1.605-0.951c-0.467,0.282,0.472,5.095,0.427,5.592
				c0.633-0.482,1.266-0.964,1.898-1.446c-1.262-0.212-2.445-0.403-3.722-0.39c-0.76,0.008-0.421-3.485-0.178-3.75
				c1.138-1.236,2.873-0.31,3.71-2.084c0.316-0.671,0.225-1.247-0.234-1.817c-0.393-0.488-0.751-0.896-1.429-0.896
				c-0.795-0.001-4.849,0.706-1.792,2.06c1.633,0.723,3.195,0.548,4.009-1.162c0.309-0.65,0.242-1.271-0.234-1.818
				c-0.768-0.88-1.23-0.906-2.391-0.991c-0.727-0.053-1.609,0.272-2.315,0.424c-2.554,0.548,1.556,1.479,1.954,1.59
				c2.084,0.579,6.045,1.67,5.896-1.794c-0.032-0.738-0.451-1.175-1.102-1.446c-1.663-0.695-3.49-0.208-5.25-0.098
				c-0.523,0.029-1.046,0.034-1.569,0.015c-0.062,1.459,0.491,2.095,1.658,1.909c0.954,0.081,1.97,0.432,2.927,0.169
				c1.351-0.372,1.568-2.103,0.954-3.152c-0.949-1.62-5.906-0.5-5.803-0.25c-0.23,0.564-0.46,1.129-0.689,1.693
				c1.382-0.886,3.983-0.051,5.644-0.521c1.254-0.355,1.478-2.075,0.358-2.741c-1.445-0.86-5.355,0.436-6.125-0.547
				c0.078,0.605,0.156,1.212,0.234,1.817c0.58-1.325,5.094-0.338,6.394-0.673c0.763-0.197,1.3-1.077,1.048-1.846
				c-0.784-2.392-3.056-2.234-5.103-1.608c-3.459,1.059,0.521,1.945,2.194,1.558c1.048-0.242,1.46-0.377,2.036-1.262
				c0.427-0.657,0.165-1.692-0.538-2.052c-2.173-1.111-4.22-0.299-6.494-0.839c0.12,0.914,0.239,1.827,0.358,2.741
				c1.247-0.912,3.827-0.237,5.42-0.804c0.818-0.291,1.522-1.375,0.896-2.203c-1.918-2.542-4.335-1.699-7.16-1.396
				C43.751,44.271,43.73,47.272,45.653,47.065L45.653,47.065z"/>
		</g>
	</g>
	<g opacity="0.7">
		<g>
			<path fill="#63A83E" d="M61.164,40.009c1.77,0.345,4.684-0.392,6.155,0.397c-0.229-0.564-0.46-1.129-0.689-1.694
				c-0.402,1.165-5.967-0.854-5.967,2.412c0,3.422,6.064,2.282,5.972,1.979c0.349-0.615,0.698-1.23,1.048-1.846
				c-2.197,0.923-5.616-0.502-7.054,2.053c-2.316,4.119,5.606,2.578,6.133,3.221c-0.078-0.606-0.156-1.212-0.235-1.818
				c-0.687,1.032-5.799-1.604-5.799,2.136c0,2.768,4.006,2.542,5.809,2.419c0.171-0.594,0.342-1.188,0.513-1.783
				c-0.622,0.004-1.243-0.016-1.864-0.059c-0.546-0.027-1.163-0.127-1.708,0.004c-1.56,0.374-2.441,0.912-2.798,2.485
				c-0.863,3.806,4.964,1.469,5.727,2.244c0.101-0.785,0.202-1.57,0.303-2.355c-2.243,1.718-5.944-1.034-6.323,3.225
				c-0.271,3.039,4.544,1.922,5.986,1.658c-0.009-0.433-0.018-0.865-0.026-1.298c-0.541-0.03-1.081-0.067-1.621-0.111
				c-0.595-0.045-1.295-0.034-1.878,0.126c-1.033,0.284-1.864,1.088-2.001,2.164c-0.143,1.122,0.108,2.397,1.29,2.852
				c1.472,0.565,4.128-1.049,5.123-0.382c-0.18-0.684-0.359-1.368-0.538-2.052c-1.088,2.353-6.352-1.487-6.839,1.682
				c-0.395,2.566,1.194,3.688,3.612,3.732c3.263,0.061-0.661-3.603-2.351-0.718c-1.094,1.866,0.332,3.859,2.339,3.926
				c0.673,0.042,1.346,0.049,2.019,0.019c0.12-0.003,4.083-0.535,1.728-0.903c-1.412-0.222-2.82-1.103-4.299-0.695
				c-1.955,0.537-2.337,3.555-1.474,5.105c1.374,2.472,4.426,1.472,6.552,0.226c2.692-1.577,0.548-8.105,0.493-10.17c-1,0-2,0-3,0
				c0.236,2.924,0.522,5.847-2.507,7.518c-1.694,0.934-0.182,3.524,1.514,2.59c3.961-2.184,4.331-5.929,3.993-10.107
				c-0.154-1.901-3.052-1.956-3,0c0.048,1.817,0.218,3.544,0.491,5.336c0.569,1.01,0.468,1.866-0.304,2.569
				c-0.555,0.06-1.065,0.229-1.532,0.507c-0.071-0.584,3.957,0.444,4.914-0.117c1.123-0.657,1.635-2.772,0.913-3.864
				c-1.281-1.939-3.341-1.017-5.381-0.975c-2.448,0.051,1.264,1.568,1.737,1.613c0.685,0.065,1.276-0.625,1.722-1.009
				c1.055-0.908,0.338-3.318-0.808-3.852c-0.658-0.305-1.109-0.584-1.839-0.468c-0.922,0.147-4.026,1.846-1.852,2.071
				c2.287,0.237,4.693-0.222,5.747-2.502c0.36-0.778,0.191-1.563-0.538-2.052c-0.805-0.54-1.434-0.805-2.424-0.527
				c-0.6,0.168-2.184,1.313-2.409,1.342c0.765-0.097,1.641,0.079,2.406,0.127c1.613,0.1,3.887-0.965,3.352-2.974
				c-0.532-2.001-2.424-1.863-4.123-1.621c-0.516,0.094-1.031,0.188-1.547,0.283c-2.176,0.399-0.064,1.084,0.911,1.111
				c1.053,0.029,2.437-0.145,3.285-0.795c0.759-0.581,1.045-1.602,0.304-2.355c-0.478-0.486-0.78-0.76-1.464-0.85
				c-1.039-0.137-3.95,1.12-1.878,1.237c1.763,0.101,3.682,0.347,4.798-1.23c0.278-0.392,0.291-1.124,0-1.514
				c-1.438-1.929-3.404-1.227-5.56-1.33c-0.409,1.015-0.154,1.419,0.765,1.212c0.617,0.038,1.24-0.04,1.852-0.109
				c0.97-0.11,1.549-0.432,2.078-1.227c0.398-0.598,0.179-1.314-0.234-1.818c-1.36-1.659-3.379-0.981-5.246-0.774
				c-0.28,1.156,0.162,1.467,1.328,0.931c0.52-0.022,1.038-0.033,1.558-0.034c0.769-0.008,1.232-0.076,1.957-0.38
				c0.735-0.309,1.311-0.989,1.048-1.846c-0.207-0.674-0.463-1.111-1.147-1.372c-0.687-0.261-1.036-0.307-1.768-0.341
				c-0.315,0.014-0.631,0.027-0.945,0.04c-1.05-0.306-1.449,0.098-1.198,1.212c2.312-0.262,4.198,0.145,5.054-2.334
				c0.212-0.613-0.127-1.393-0.689-1.694c-2.092-1.123-4.589-0.254-6.872-0.7C60.071,36.748,59.266,39.639,61.164,40.009
				L61.164,40.009z"/>
		</g>
	</g>
	<g opacity="0.7">
		<g>
			<path fill="#457C24" d="M12.938,68.875c3.22,0.136,5.766-1.836,8.319-3.518c-0.734-0.299-1.469-0.598-2.203-0.896
				c0.354,1.325-0.793,1.771-1.89,2.093c-1.853,0.542-1.063,3.438,0.798,2.893c2.737-0.801,4.794-2.755,3.985-5.782
				c-0.241-0.9-1.391-1.432-2.203-0.896c-2.067,1.36-4.192,3.218-6.806,3.107C11.002,65.794,11.01,68.794,12.938,68.875
				L12.938,68.875z"/>
		</g>
	</g>
	<g opacity="0.7">
		<g>
			<path fill="#457C24" d="M36.205,57.368c-1.171,1.604-1.973,3.447-3.203,5.009c-1.194,1.517-2.694,2.658-4.259,3.766
				c-1.24,0.876-0.77,2.675,0.757,2.795c3.246,0.256,6.51-0.244,7.92-3.556c-0.914-0.119-1.828-0.238-2.742-0.358
				c0.221,0.775,0.615,1.927,0.276,2.72c-0.752,1.758,1.831,3.288,2.591,1.514c0.707-1.652,0.51-3.331,0.026-5.03
				c-0.322-1.132-2.206-1.617-2.742-0.358c-0.997,2.342-3.098,2.245-5.33,2.069c0.252,0.932,0.505,1.863,0.757,2.795
				c1.779-1.257,3.474-2.543,4.866-4.234c1.432-1.739,2.349-3.803,3.672-5.616C39.938,57.316,37.333,55.822,36.205,57.368
				L36.205,57.368z"/>
		</g>
	</g>
	<g opacity="0.7">
		<g>
			<path fill="#457C24" d="M51.768,52.743c-1.663,3.146-4.674,5.098-7.391,7.259c-1.123,0.894-0.091,2.477,1.061,2.561
				c1.602,0.117,2.901-0.297,4.319-1.018c1.423-0.723,2.152-2.348,3.563-3.125c-0.734-0.299-1.469-0.598-2.203-0.896
				c0.259,0.839-3.102,2.154-3.707,2.487c-1.364,0.749-2.778,1.69-3.168,3.278c-0.177,0.717,0.222,1.724,1.048,1.845
				c1.567,0.23,2.656-0.049,4.026-0.883c0.598-0.364,1.204-0.868,1.726-1.333c0.249-0.229,0.502-0.454,0.759-0.674
				c0.993-0.431,0.819-0.985-0.521-1.664c-1.527,1.702-3.922,2.08-5.369,3.941c-1.256,1.614-1.181,5.362,1.761,5.023
				c3.02-0.349,3.313-3.343,5.586-4.688c-0.734-0.299-1.469-0.598-2.203-0.896c0.109,0.441,0.468,1.431-0.366,1.414
				c-1.936-0.038-1.932,2.962,0,3c3.128,0.062,3.936-2.489,3.259-5.211c-0.233-0.941-1.384-1.381-2.203-0.896
				c-0.786,0.464-1.346,1.108-1.893,1.831c-0.408,0.539-0.807,1.083-1.234,1.608c-0.827,1.017,0.109,0.036,0.45-0.175
				c1.567-0.968,3.324-1.705,4.58-3.104c1.092-1.217,0.729-3.104-0.936-3.563c-2.704-0.744-4.021,3.757-6.625,3.375
				c0.35,0.615,0.699,1.23,1.048,1.845c0.351-1.425,3.833-2.508,4.996-3.195c1.538-0.909,2.422-2.404,1.879-4.164
				c-0.29-0.939-1.337-1.374-2.203-0.896c-2.33,1.283-3.301,3.957-6.368,3.732c0.354,0.854,0.707,1.707,1.061,2.561
				c2.938-2.336,6.063-4.469,7.859-7.866C55.262,52.548,52.672,51.032,51.768,52.743L51.768,52.743z"/>
		</g>
	</g>
	<g opacity="0.7">
		<g>
			<path fill="#457C24" d="M69.002,46.377c-2.743,2.474-4.34,5.37-7.759,7.203c-1.399,0.75-0.646,2.697,0.757,2.795
				c2.688,0.187,4.685-0.85,6.944-2.205c-0.734-0.564-1.469-1.129-2.203-1.693c-0.386,1.482-4.49,2.027-5.599,3.642
				c-0.57,0.83,0.028,1.93,0.896,2.203c2.912,0.917,4.666-0.068,7.093-1.589c-0.734-0.564-1.469-1.129-2.203-1.693
				c-1.001,2.648-5.211,0.386-6.25,3.375c-0.737,2.12,2.43,2.433,3.657,2.348c0.828-0.057,1.719-0.194,2.483-0.529
				c2.75-1.202-1.188-1.708-2.571-1.502c-1.144,0.171-4.426,1.389-3.059,3.243c1.054,1.428,2.854,1.521,4.513,1.625
				c2.247,0.14,0.968-1.752-0.811-1.938c-1.126-0.117-2.377-0.165-3.124,0.832c-1.198,1.597-0.401,3.269,1.278,4.03
				c2.65,1.203,3.435-0.616,5.478-1.327c-0.564-0.229-1.129-0.459-1.693-0.689c-1.146-1.939-7.569-0.132-5.528,2.593
				c2.181,2.911,4.811,2.656,7.83,1.133c1.728-0.871,0.209-3.459-1.514-2.59c-4.293,2.165-4.342,1.254-1.379,1.411
				c1.055,0.057,1.792-0.357,2.643-0.884c1.217-0.752,1.164-2.117,0.538-3.177c-0.325-0.551-1.062-0.909-1.693-0.689
				c-0.706,0.245-1.067,0.506-1.631,1.011c-2.399,2.149,1.427,1.495,2.178,1.257c1.607-0.511,1.769-2.356,1.209-3.641
				c-0.194-0.448-0.823-0.771-1.295-0.743c-0.88,0.053-1.636,0.413-2.485,0.411c-0.549-0.014-1.093-0.078-1.632-0.193
				c0.04,0.448,0.079,0.897,0.119,1.346c0.766-0.083,1.532-0.165,2.299-0.244c1.873-0.197,3.127-1.112,3.796-2.847
				c0.194-0.505-0.052-1.086-0.387-1.459c-1.408-1.57-3.613,0.193-5.228,0.511c-1.712,0.338-2.303,1.695,0.016,1.707
				c0.771,0.004,1.44-0.218,2.154-0.47c1.566-0.552,2.425-1.639,2.981-3.113c0.474-1.251-1.147-2.355-2.203-1.693
				c-1.47,0.92-2.536,1.993-4.782,1.286c0.299,0.734,0.598,1.469,0.896,2.203c1.526-2.223,5.052-1.09,5.901-4.358
				c0.327-1.257-1.056-2.382-2.203-1.693c-1.816,1.089-3.214,1.948-5.431,1.795c0.252,0.932,0.505,1.863,0.757,2.795
				c3.676-1.97,5.393-4.99,8.366-7.672C72.563,47.2,70.435,45.085,69.002,46.377L69.002,46.377z"/>
		</g>
	</g>
</g>
<g id="Capa_2">
	
		<line fill="none" stroke="#0E527F" stroke-width="5" stroke-linecap="round" stroke-miterlimit="10" x1="2.5" y1="77" x2="2.5" y2="3"/>
	
		<line fill="none" stroke="#0E527F" stroke-width="5" stroke-linecap="round" stroke-miterlimit="10" x1="77" y1="77.5" x2="3" y2="77.5"/>
	
		<rect x="12" y="57" fill="none" stroke="#0E527F" stroke-width="4" stroke-linecap="round" stroke-linejoin="round" stroke-miterlimit="10" width="10" height="13"/>
	
		<rect x="28" y="50" fill="none" stroke="#0E527F" stroke-width="4" stroke-linecap="round" stroke-linejoin="round" stroke-miterlimit="10" width="10" height="20"/>
	
		<rect x="44" y="43" fill="none" stroke="#0E527F" stroke-width="4" stroke-linecap="round" stroke-linejoin="round" stroke-miterlimit="10" width="10" height="27"/>
	
		<rect x="60" y="36" fill="none" stroke="#0E527F" stroke-width="4" stroke-linecap="round" stroke-linejoin="round" stroke-miterlimit="10" width="10" height="34"/>
	
		<line fill="none" stroke="#0E527F" stroke-width="4" stroke-linecap="round" stroke-linejoin="round" stroke-miterlimit="10" x1="38" y1="16" x2="38" y2="31"/>
	
		<line fill="none" stroke="#0E527F" stroke-width="4" stroke-linecap="round" stroke-linejoin="round" stroke-miterlimit="10" x1="38" y1="31.148" x2="48.488" y2="31.295"/>
	
		<line fill="none" stroke="#0E527F" stroke-width="4" stroke-linecap="round" stroke-linejoin="round" stroke-miterlimit="10" x1="33.996" y1="41.326" x2="38" y2="31.148"/>
	
		<line fill="none" stroke="#0E527F" stroke-width="4" stroke-linecap="round" stroke-miterlimit="10" x1="28" y1="20.61" x2="30.084" y2="26.592"/>
	
		<line fill="none" stroke="#0E527F" stroke-width="4" stroke-linecap="round" stroke-miterlimit="10" x1="47.388" y1="20.301" x2="51.243" y2="16.095"/>
	
		<line fill="none" stroke="#0E527F" stroke-width="4" stroke-linecap="round" stroke-miterlimit="10" x1="38" y1="16.095" x2="47.388" y2="20.301"/>
	
		<line fill="none" stroke="#0E527F" stroke-width="4" stroke-linecap="round" stroke-miterlimit="10" x1="38" y1="16.095" x2="28" y2="20.61"/>
	
		<line fill="none" stroke="#0E527F" stroke-width="4" stroke-linecap="round" stroke-miterlimit="10" x1="49.752" y1="37.458" x2="54" y2="36.292"/>
	
		<line fill="none" stroke="#0E527F" stroke-width="4" stroke-linecap="round" stroke-miterlimit="10" x1="28.27" y1="39.76" x2="26.209" y2="43.279"/>
	
		<line fill="none" stroke="#0E527F" stroke-width="4" stroke-linecap="round" stroke-miterlimit="10" x1="33.996" y1="41.326" x2="28.27" y2="39.76"/>
	
		<line fill="none" stroke="#0E527F" stroke-width="4" stroke-linecap="round" stroke-miterlimit="10" x1="49.752" y1="37.458" x2="48.488" y2="31.295"/>
	
		<ellipse fill="none" stroke="#0E527F" stroke-width="3" stroke-linecap="square" stroke-miterlimit="10" cx="37.443" cy="7.897" rx="6.557" ry="6.373"/>
	
		<line fill="none" stroke="#0E527F" stroke-width="3" stroke-linecap="round" stroke-miterlimit="10" x1="60" y1="31.5" x2="70" y2="31.5"/>
	
		<line fill="none" stroke="#0E527F" stroke-width="3" stroke-linecap="round" stroke-miterlimit="10" x1="64.5" y1="27" x2="64.5" y2="2"/>
	
		<line fill="none" stroke="#0E527F" stroke-width="2" stroke-linecap="round" stroke-miterlimit="10" x1="66" y1="3" x2="72" y2="3"/>
	
		<line fill="none" stroke="#0E527F" stroke-width="2" stroke-linecap="round" stroke-miterlimit="10" x1="72" y1="3" x2="72" y2="13"/>
	
		<line fill="none" stroke="#0E527F" stroke-width="2" stroke-linecap="round" stroke-miterlimit="10" x1="72" y1="13" x2="66" y2="13"/>
	
		<line fill="none" stroke="#0E527F" stroke-width="2" stroke-linecap="round" stroke-miterlimit="10" x1="73" y1="7" x2="79" y2="7"/>
	
		<line fill="none" stroke="#0E527F" stroke-width="2" stroke-linecap="round" stroke-miterlimit="10" x1="79" y1="7" x2="77.743" y2="11.35"/>
	
		<line fill="none" stroke="#0E527F" stroke-width="2" stroke-linecap="round" stroke-miterlimit="10" x1="77.735" y1="11.354" x2="79" y2="16"/>
	
		<line fill="none" stroke="#0E527F" stroke-width="2" stroke-linecap="round" stroke-miterlimit="10" x1="79" y1="16" x2="69" y2="16"/>
	
		<line fill="none" stroke="#0E527F" stroke-width="2" stroke-linecap="round" stroke-miterlimit="10" x1="69" y1="16" x2="69" y2="13"/>
</g>
</svg>
