<?xml version="1.0" standalone="no"?>
<!DOCTYPE svg PUBLIC "-//W3C//DTD SVG 1.1//EN" "http://www.w3.org/Graphics/SVG/1.1/DTD/svg11.dtd" >
<svg xmlns="http://www.w3.org/2000/svg">
<metadata>Generated by IcoMoon</metadata>
<defs>
<font id="icomoon" horiz-adv-x="1024">
<font-face units-per-em="1024" ascent="960" descent="-64" />
<missing-glyph horiz-adv-x="1024" />
<glyph unicode="&#x20;" horiz-adv-x="512" d="" />
<glyph unicode="&#xe900;" d="M838.17 882.048c15.45 2.624 31.667 3.302 47.258 1.997 8.358-0.704-4.454 4.672 5.286 11.878 2.419 1.792-3.149-0.947-2.893-0.909-3.571-0.435-7.206-0.448-10.803-0.499-12.979-0.179-27.366 1.818-39.821-2.726-15.475-5.632-22.899-21.709-16.563-37.235 6.451-15.795 21.235-21.184 37.402-19.494 7.219 0.755 14.349 2.214 21.491 3.52 2.778 0.512 5.427 0.73 8.256 0.832 3.93 0.141 1.114-0.32-1.28 2.931-0.205 0.282-0.038-1.331-0.090-1.549 0.986 4.762 7.194 5.427 1.267 5.504-7.923 0.102-15.821 1.869-23.731 2.394-18.406 1.229-32.678-7.603-39.181-24.73-2.918-7.667 1.766-18.010 8.819-21.683 20.134-10.483 41.037-8.627 63.014-8.294 24.742 0.371 24.781 38.771 0 38.4-13.888-0.218-30.822-3.61-43.635 3.059 2.944-7.232 5.888-14.451 8.819-21.683-1.638-4.326-6.208-3.584-0.704-3.392 3.93 0.141 7.923-0.448 11.814-0.909 9.562-1.114 17.958-1.779 27.558-0.422 21.338 3.008 27.904 28.48 22.17 46.042-6.093 18.662-24.96 24.256-42.714 22.093-8.192-0.998-16.243-2.714-24.371-4.032 0.294 0.051-7.168 0.269-3.93-0.269 10.88-1.843 2.125-15.795-2.56-17.498 9.254 3.366 28.608-0.013 41.242 1.549 18.227 2.253 33.242 11.661 34.074 31.59 1.907 45.875-68.979 35.226-96.41 30.566-24.358-4.147-13.99-41.165 10.214-37.030v0z" />
<glyph unicode="&#xe901;" d="M930.65 830.298c11.046-0.269 32.986 8.576 42.496 2.624-1.306 10.061-2.586 20.109-3.891 30.157-12.019-10.176-27.482-15.206-41.498-21.952-12.71-6.118-12.378-26.944 0-33.165 13.76-6.912 29.798-7.539 43.11-14.746-1.306 10.061-2.586 20.109-3.891 30.157-10.125-12.109-21.299-19.558-37.478-19.341-21.235 0.282-26.778-33.869-5.094-37.709 11.277-2.010 22.054-2.022 33.459-1.818 22.618 0.41 24.909 30.362 5.094 37.709-4.058 1.51-5.914 3.008-8.55 6.4-4.531-10.931-9.050-21.85-13.581-32.781 14.605 0.051 29.069-9.216 42.547-14.067-1.536 11.699-3.059 23.398-4.582 35.098-8.806-6.298-22.566-4.25-32.768-3.904-12.685 0.422-25.408 1.894-38.106 0.845-24.499-2.022-24.704-40.435 0-38.4 28.378 2.342 65.152-9.651 90.24 8.282 13.837 9.894 11.699 29.235-4.582 35.098-17.395 6.259-33.779 15.514-52.749 15.437-18.33-0.064-23.296-20.198-13.581-32.781 6.554-8.474 15.693-12.646 25.498-16.282 1.702 12.57 3.405 25.139 5.094 37.709-7.718-0.141-15.616-0.909-23.258 0.448-1.702-12.57-3.405-25.139-5.094-37.709 25.613-0.346 48.282 11.046 64.627 30.592 7.629 9.114 7.782 23.846-3.866 30.157-13.67 7.45-30.246 7.885-43.046 14.771 0-11.059 0-22.106 0-33.165 12.8 8.41 34.278 15.27 49.254 27.968 9.779 8.282 5.862 24.026-3.917 30.157-19.584 12.275-40.832 2.112-61.875 2.624-24.781 0.589-24.742-37.811-0.013-38.413v0z" />
<glyph unicode="&#xe902;" d="M422.4 858.406c7.603 15.398 27.2 24.256 42.406 30.656 5.274 2.227 8.973 2.547 14.669 2.816 9.242 0.435 14.272-4.518 7.424 4.941-0.64 4.928-1.293 9.869-1.933 14.797 5.299 6.49 3.264 7.091-6.093 1.805-7.424-2.061-15.424-2.752-22.963-4.339-10.47-2.176-20.634-8.422-28.826-15.002-14.413-11.571-36.288-30.259-30.451-51.469 5.824-21.171 35.558-19.84 50.931-11.763 12.339 6.477 22.95 15.398 34.97 22.426 16 9.37 37.696 9.485 55.565 11.482 14.336 1.6 28.365 21.069 13.581 32.781-28.493 22.566-55.565 3.789-81.434-13.632-21.952-14.784-64.397-15.078-72.794-45.594-8.141-29.606 30.49-35.981 50.547-36.646 13.658-0.461 25.562 1.958 37.53 8.358 7.514 4.006 37.67 32.358 45.99 24.55-1.869 4.531-3.75 9.050-5.619 13.581 0.141-6.182-28.774-13.888-33.254-14.976-16.486-4.045-34.79-4.326-51.533-2.317-24.55 2.944-24.269-35.482 0-38.4 40.179-4.826 85.53 3.328 114.816 32.794 8.819 8.883 12.954 26.906 2.752 36.48-13.146 12.339-26.189 11.827-43.187 8.461-15.667-3.11-28.774-10.56-41.19-20.224-8.307-6.464-11.034-9.293-21.056-9.843-3.533-0.115-7.066-0.077-10.598 0.128-1.779 0.154-3.546 0.294-5.338 0.448-8.461 3.379-9.805-1.638-4.032-15.078 9.6 11.43 34.918 14.669 48.32 20.736 6.451 2.931 37.158 28.582 42.918 24.038 4.531 10.931 9.050 21.85 13.581 32.781-18.419-2.074-36.723-3.789-54.694-8.499-6.515-1.702-57.485-30.822-54.669-33.382 1.869-4.531 3.75-9.050 5.619-13.581-1.062 11.789 31.386 24.269 39.219 25.907 13.35 2.79 25.933 4.237 37.389 12.262 16.205 11.366 14.976 36.134-5.683 41.805-40.090 10.982-97.498-12.365-116.032-49.907-10.931-22.118 22.182-41.574 33.152-19.379v0z" />
<glyph unicode="&#xe903;" d="M515.366 905.126c0.141-23.014 1.037-45.056-9.818-66.138-10.15-19.738-26.086-35.661-42.765-49.92-15.949-13.632 1.549-35.238 18.675-32.090 39.386 7.245 59.776 51.802 71.603 85.722 8.179 23.45-28.928 33.434-37.030 10.214-7.398-21.197-19.968-54.336-44.8-58.906 6.234-10.688 12.454-21.389 18.675-32.090 19.482 16.653 35.866 35.52 48.781 57.69 15.296 26.317 15.219 56.051 15.053 85.517-0.128 24.755-38.528 24.768-38.374 0v0z" />
<glyph unicode="&#xe904;" d="M172.365 184.614c14.234 0.192 28.365-0.435 42.56-1.51 7.104-0.538 14.195-1.331 21.286-2.125 0.87 5.645 1.754 11.29 2.624 16.922-3.226-0.538-6.49-0.768-9.766-0.691-18.086-0.461-36.198 4.595-53.043-4.058-20.582-10.586-15.002-40.294 2.214-50.394 21.44-12.557 54.694-8.090 78.541-13.069-1.523 11.699-3.059 23.386-4.582 35.085-10.483-5.056-19.238-12.966-31.155-14.4-15.078-1.83-30.771 0.115-45.901 0.346-22.72 0.346-24.742-30.63-5.107-37.709 15.027-5.427 29.722-10.624 45.555-13.056 14.899-2.291 30.541 1.536 45.082-1.408-3.827 9.395-7.654 18.803-11.469 28.198-13.056-19.814-49.203-10.304-69.056-9.946-24.781 0.435-24.73-37.965 0-38.4 38.080-0.678 78.131-7.59 102.208 28.979 6.541 9.92 0.346 25.805-11.469 28.198-14.477 2.931-28.557 1.024-43.187 1.459-16.269 0.474-32.371 7.565-47.45 13.005-1.702-12.57-3.405-25.139-5.107-37.709 17.882-0.269 35.571-1.6 53.376 0.55 16.538 1.997 28.493 11.725 43.046 18.752 14.784 7.13 11.2 31.795-4.582 35.085-13.414 2.803-27.597 5.146-41.254 6.246-5.44 0.435-10.893 0.742-16.333 1.075-4.045 0.141-8 0.806-11.853 1.971-4.915-12.122-3.059-17.472 5.594-16.064 19.674-0.666 40.269-4.070 58.202 6.182 20.378 11.648 15.744 40.55-4.211 48.986-24.154 10.214-58.944 8.218-84.774 7.872-24.73-0.294-24.755-38.707 0.013-38.374v0z" />
<glyph unicode="&#xe905;" d="M380.89 265.805c13.926-0.294 27.789-0.986 41.702-1.677 7.053-0.346 31.066-7.066 25.728 2.701 0.998 7.744 1.997 15.514 2.995 23.258-8.32-9.498-40.192-0.576-52.8-2.778-13.939-2.419-22.31-7.552-29.21-19.878-6.413-11.456-0.218-23.974 11.469-28.198 16.794-6.067 33.92-5.747 51.635-4.736 2.944 0.243 5.901 0.474 8.858 0.704 13.338-2.675 18.24 5.056 14.682 23.206-5.965-0.691-12.275-0.013-18.253 0.307-24.41 1.344-59.034 13.338-72.358-15.104-10.957-23.373 14.144-36.774 33.651-38.438 11.072-0.947 21.402-0.858 32.358 0.922 2.202 0.499 4.39 0.986 6.592 1.472 13.402 0.474 18.906 9.869 16.499 28.186-6.72-2.752-17.933-0.602-24.973-0.371-20.762 0.653-48.96 5.658-65.485-10.214-14.848-14.259-6.605-40.883 12.826-45.517 23.219-5.542 47.603-0.333 71.181-0.832 14.963-0.32 12.941 20.902 0.333 25.229-6.707 2.317-13.094 5.466-19.674 8.090-13.875 5.555-28.096 5.645-42.573 2.406-21.862-4.902-39.539-37.632-27.763-57.728 5.312-9.062 15.501-11.507 25.152-11.686 5.926-0.102 12.096 2.394 17.536 4.352 3.533 1.28 53.286 34.65 29.184 33.869-24.179-0.794-48.986 9.971-63.987-15.411-14.067-23.795 10.65-52.89 35.904-46.63 13.926 3.456 26.778 9.92 40.294 14.669 2.637 0.806 5.274 1.626 7.923 2.432 16.128-0.589 17.907 8.154 5.338 26.202-5.901-2.253-12.352-3.43-18.483-4.826-24.87-5.722-55.962-7.027-75.789-24.909-17.382-15.693-1.6-39.91 17.331-42.65 12.442-1.805 25.229 1.498 37.197 4.736 15.821 4.288 58.432 14.784 13.069 12.429-17.126-0.883-33.677 3.93-49.869-2.726-22.579-9.28-12.698-46.438 10.214-37.030 35.213 14.464 70.349-10.854 95.744 27.571 18.061 27.302-14.758 44.442-36.403 44.8-13.082 0.218-27.059-3.418-39.526-7.002-5.325-1.523-10.624-2.893-16.013-4.122-0.678-7.206-1.344-14.387-2.022-21.594 4.032 1.523 8.128 2.816 12.301 3.866 24.32 6.912 58.918 5.875 79.053 22.938 14.848 12.595 9.011 36.198-9.869 41.382-13.325 3.661-27.686-0.576-40.384-4.493-8.576-2.637-54.669-24.998-27.238-25.792 19.302-0.55 48.896-9.152 56 16.627 8.781 31.923-34.65 40.422-55.27 30.131-7.078-3.52-13.811-7.078-21.261-9.754 3.187 1.139 28.16-6.643 35.405-9.715 11.866-5.030 23.808-10.701 36.749-12.224 21.952-2.586 40.717 17.306 28.173 38.707-10.842 18.496-37.722 16.717-55.885 15.974-12.71-0.525-25.318-1.677-38.054-1.139-0.832-6.413-1.664-12.813-2.509-19.226 3.84 0.87 7.744 1.254 11.686 1.126 9.792 0.371 19.699-0.371 29.478-0.755 16.845-0.653 47.386-3.443 53.338 18.214 8.179 29.709-27.866 33.613-47.475 30.976-13.581-1.843-23.962-4.544-37.926-2.125 2.88-6.694 5.76-13.402 8.64-20.096 5.914-0.819 11.827-1.638 17.741-2.419 4.698-0.538 9.216-0.883 13.901-1.216 19.341-1.318 50.598-0.832 49.6 25.997-1.6 42.534-72.742 21.44-96.294 29.952 3.827-9.395 7.654-18.803 11.469-28.198 3.469 6.195 45.722 1.382 52.365 2.163 9.83 1.139 17.229 5.414 23.629 12.71 5.862 6.682 7.386 15.283 3.008 23.258-14.925 27.251-74.906 17.434-100.582 17.997-24.781 0.589-24.73-37.811 0-38.349v0z" />
<glyph unicode="&#xe906;" d="M584.358 357.568c14.733 1.587 48.653 14.208 58.496 1.165 3.827 9.395 7.654 18.803 11.469 28.198-25.715-9.139-56.141 2.253-78.554-14.157-12.467-9.126-13.056-30.899 4.582-35.085 23.040-5.478 52.902 3.904 73.933-6.861-2.304 8.755-4.582 17.51-6.886 26.266-2.662-4.083-49.024 4.070-60.518-2.662-9.024-5.274-14.515-18.138-14.515-28.25 0-47.68 81.613-13.325 82.33-15.475 4.467 7.872 8.934 15.744 13.402 23.629-29.158-7.526-88.269 11.456-104.781-26.278-3.866-8.806-2.918-15.718 2.995-23.258 22.848-29.171 60.838 2.074 86.17-13.005 1.523 11.699 3.046 23.386 4.582 35.085-28.954-8.218-54.938 6.426-81.421-10.547-6.592-4.224-12.147-13.619-8.819-21.67 11.955-28.864 37.517-23.744 64.858-19.814 23.821 16.154 28.429 24.461 13.811 24.922-9.715 1.152-19.379 2.304-29.12 3.123-16.090 1.357-28.442-2.086-40.614-12.083-13.76-11.302-2.893-34.496 11.891-38.259 30.861-7.834 67.802 9.331 96.678-2.726-4.698 6.17-9.395 12.339-14.106 18.509-0.794 18.317-69.645 22.835-82.56 21.978-14.758-0.986-27.776-13.658-31.616-27.597-16.269-59.213 74.765-19.456 85.171-31.398-0.998 7.744-1.997 15.501-2.995 23.258-1.139-2.406-62.694 18.074-59.174-22.528 1.37-15.744 4.16-20.992 17.843-29.222 7.59-4.582 37.338 5.12 37.261 5.222-0.998 7.744-1.997 15.514-2.995 23.258 3.84 8.154-20.173 4.864-28.698-2.227-9.894-8.23-27.418-25.869-27.354-40.013 0.090-18.893-7.194-58.982 7.885-74.65 21.018-21.811 44.365-14.272 73.536-19.174 13.043-2.189 23.091 5.235 24.294 18.509 2.586 28.365-2.074 62.566-7.36 90.176-2.829 14.771-6.362 19.814-20.25 25.114-26.317 10.035-64.23-27.443-65.024-52.122-0.64-19.699 0.243-76.39 37.389-63.885 32.512 10.931 32.141 40.358 27.866 70.323-3.469 24.435-40.474 14.003-37.030-10.202 6.541-45.926 8.499 4.89 20.544 12.173-5.978-3.61 6.042-65.216 5.466-71.578 8.102 6.17 16.205 12.339 24.294 18.509-16.154 2.714-31.296 5.158-47.642 4.992-9.728-0.102-5.389 44.608-2.278 48 14.566 15.821 36.774 3.968 47.488 26.675 4.045 8.589 2.88 15.962-2.995 23.258-5.030 6.246-9.613 11.469-18.291 11.469-10.176 0.013-62.067-9.037-22.938-26.368 20.902-9.254 40.896-7.014 51.315 14.874 3.955 8.32 3.098 16.269-2.995 23.27-9.83 11.264-15.744 11.597-30.605 12.685-9.306 0.678-20.595-3.482-29.632-5.427-32.691-7.014 19.917-18.931 25.011-20.352 26.675-7.411 77.376-21.376 75.469 22.963-0.41 9.446-5.773 15.040-14.106 18.509-21.286 8.896-44.672 2.662-67.2 1.254-6.694-0.371-13.389-0.435-20.083-0.192-0.794-18.675 6.285-26.816 21.222-24.435 12.211-1.037 25.216-5.53 37.466-2.163 17.293 4.762 20.070 26.918 12.211 40.346-12.147 20.736-75.597 6.4-74.278 3.2-2.944-7.219-5.888-14.451-8.819-21.67 17.69 11.341 50.982 0.653 72.243 6.669 16.051 4.544 18.918 26.56 4.582 35.085-18.496 11.008-68.544-5.581-78.4 7.002 0.998-7.744 1.997-15.514 2.995-23.258 7.424 16.96 65.203 4.326 81.843 8.614 9.766 2.522 16.64 13.786 13.414 23.629-10.035 30.618-39.117 28.595-65.318 20.582-44.275-13.555 6.669-24.896 28.083-19.942 13.414 3.098 18.688 4.826 26.061 16.154 5.466 8.41 2.112 21.658-6.886 26.266-27.814 14.221-54.016 3.827-83.123 10.739 1.536-11.699 3.059-23.386 4.582-35.085 15.962 11.674 48.986 3.034 69.376 10.291 10.47 3.725 19.482 17.6 11.469 28.198-24.55 32.538-55.488 21.747-91.648 17.869-24.294-2.624-24.563-41.037 0.051-38.387v0z" />
<glyph unicode="&#xe907;" d="M782.899 447.885c22.656-4.416 59.955 5.018 78.784-5.082-2.931 7.219-5.888 14.451-8.819 21.683-5.146-14.912-76.378 10.931-76.378-30.874 0-43.802 77.619-29.21 76.442-25.331 4.467 7.872 8.934 15.744 13.414 23.629-28.122-11.814-71.885 6.426-90.291-26.278-29.645-52.723 71.757-32.998 78.502-41.229-0.998 7.757-1.997 15.514-3.008 23.27-8.794-13.21-74.227 20.531-74.227-27.341 0-35.43 51.277-32.538 74.355-30.963 2.189 7.603 4.378 15.206 6.566 22.822-7.962-0.051-15.91 0.205-23.859 0.755-6.989 0.346-14.886 1.626-21.862-0.051-19.968-4.787-31.245-11.674-35.814-31.808-11.046-48.717 63.539-18.803 73.306-28.723 1.293 10.048 2.586 20.096 3.878 30.144-28.71-21.99-76.083 13.235-80.934-41.28-3.469-38.899 58.163-24.602 76.621-21.222-0.115 5.542-0.23 11.072-0.333 16.614-6.925 0.384-13.837 0.858-20.749 1.421-7.616 0.576-16.576 0.435-24.038-1.613-13.222-3.635-23.859-13.926-25.613-27.699-1.83-14.362 1.382-30.682 16.512-36.506 18.842-7.232 52.838 13.427 65.574 4.89-2.304 8.755-4.595 17.51-6.886 26.266-13.926-30.118-81.306 19.034-87.539-21.53-5.056-32.845 15.283-47.206 46.234-47.77 41.766-0.781-8.461 46.118-30.093 9.19-14.003-23.885 4.25-49.395 29.939-50.253 8.614-0.538 17.229-0.627 25.843-0.243 1.536 0.038 52.262 6.848 22.118 11.558-18.074 2.842-36.096 14.118-55.027 8.896-25.024-6.874-29.914-45.504-18.867-65.344 17.587-31.642 56.653-17.638 83.866-1.69 34.432 20.211 6.989 105.805 6.285 131.405-12.8 0-25.6 0-38.4 0 3.021-38.4 6.682-76.032-32.090-97.421-21.683-11.955-2.33-45.709 19.379-33.754 50.701 27.955 55.437 75.584 51.11 129.075-1.971 24.333-39.066 24.883-38.4-0.154 0.614-23.258 2.79-45.44 6.285-68.378 7.283-12.928 5.99-23.923-3.891-32.922-7.104-0.768-13.632-2.944-19.61-6.502-0.909 7.475 50.65-5.696 62.899 1.485 14.374 8.41 20.928 35.469 11.686 49.446-16.397 24.819-42.765 13.018-68.877 12.48-31.334-0.653 16.179-20.070 22.234-20.646 8.768-0.832 16.333 8 22.042 12.915 13.504 11.622 4.326 42.47-10.342 49.306-8.422 3.904-14.195 7.475-23.539 5.99-11.802-1.882-51.533-23.629-23.706-26.509 29.274-3.034 60.070 2.842 73.562 32.026 4.608 9.958 2.445 20.006-6.886 26.266-10.304 6.912-18.355 10.304-31.027 6.746-7.68-2.15-27.955-16.806-30.835-17.178 9.792 1.242 21.005-1.011 30.797-1.626 20.646-1.28 49.754 12.352 42.906 38.067-6.81 25.613-31.027 23.846-52.774 20.749-6.605-1.203-13.197-2.406-19.802-3.622-27.853-5.107-0.819-13.875 11.661-14.221 13.478-0.371 31.194 1.856 42.048 10.176 9.715 7.437 13.376 20.506 3.891 30.144-6.118 6.221-9.984 9.728-18.739 10.88-13.299 1.754-50.56-14.336-24.038-15.834 22.566-1.293 47.13-4.442 61.414 15.744 3.558 5.018 3.725 14.387 0 19.379-18.406 24.691-43.571 15.706-71.168 17.024-5.235-12.992-1.971-18.163 9.792-15.514 7.898-0.486 15.872 0.512 23.706 1.395 12.416 1.408 19.827 5.53 26.598 15.706 5.094 7.654 2.291 16.819-2.995 23.27-17.408 21.235-43.251 12.557-67.149 9.907-3.584-14.797 2.074-18.778 16.998-11.917 6.656 0.282 13.286 0.422 19.942 0.435 9.843 0.102 15.77 0.973 25.050 4.864 9.408 3.955 16.781 12.659 13.414 23.629-2.65 8.627-5.926 14.221-14.682 17.562-8.794 3.341-13.261 3.93-22.63 4.365-4.032-0.179-8.077-0.346-12.096-0.512-13.44 3.917-18.547-1.254-15.334-15.514 29.594 3.354 53.734-1.856 64.691 29.875 2.714 7.846-1.626 17.83-8.819 21.683-26.778 14.374-58.739 3.251-87.962 8.96-24.205 4.698-34.509-32.307-10.214-37.043v0z" />
<glyph unicode="&#xe908;" d="M165.606 78.4c41.216-1.741 73.805 23.501 106.483 45.030-9.395 3.827-18.803 7.654-28.198 11.469 4.531-16.96-10.15-22.669-24.192-26.79-23.718-6.938-13.606-44.006 10.214-37.030 35.034 10.253 61.363 35.264 51.008 74.010-3.085 11.52-17.805 18.33-28.198 11.469-26.458-17.408-53.658-41.19-87.117-39.77-24.781 1.050-24.678-37.35 0-38.387v0z" />
<glyph unicode="&#xe909;" d="M463.424 225.69c-14.989-20.531-25.254-44.122-40.998-64.115-15.283-19.418-34.483-34.022-54.515-48.205-15.872-11.213-9.856-34.24 9.69-35.776 41.549-3.277 83.328 3.123 101.376 45.517-11.699 1.523-23.398 3.046-35.098 4.582 2.829-9.92 7.872-24.666 3.533-34.816-9.626-22.502 23.437-42.086 33.165-19.379 9.050 21.146 6.528 42.637 0.333 64.384-4.122 14.49-28.237 20.698-35.098 4.582-12.762-29.978-39.654-28.736-68.224-26.483 3.226-11.93 6.464-23.846 9.69-35.776 22.771 16.090 44.467 32.55 62.285 54.195 18.33 22.259 30.067 48.678 47.002 71.885 14.643 20.070-18.701 39.194-33.139 19.405v0z" />
<glyph unicode="&#xe90a;" d="M662.63 284.89c-21.286-40.269-59.827-65.254-94.605-92.915-14.374-11.443-1.165-31.706 13.581-32.781 20.506-1.498 37.133 3.802 55.283 13.030 18.214 9.254 27.546 30.054 45.606 40-9.395 3.827-18.803 7.654-28.198 11.469 3.315-10.739-39.706-27.571-47.45-31.834-17.459-9.587-35.558-21.632-40.55-41.958-2.266-9.178 2.842-22.067 13.414-23.616 20.058-2.944 33.997 0.627 51.533 11.302 7.654 4.659 15.411 11.11 22.093 17.062 3.187 2.931 6.426 5.811 9.715 8.627 12.71 5.517 10.483 12.608-6.669 21.299-19.546-21.786-50.202-26.624-68.723-50.445-16.077-20.659-15.117-68.634 22.541-64.294 38.656 4.467 42.406 42.79 71.501 60.006-9.395 3.827-18.803 7.654-28.198 11.469 1.395-5.645 5.99-18.317-4.685-18.099-24.781 0.486-24.73-37.914 0-38.4 40.038-0.794 50.381 31.859 41.715 66.701-2.982 12.045-17.715 17.677-28.198 11.469-10.061-5.939-17.229-14.182-24.23-23.437-5.222-6.899-10.33-13.862-15.795-20.582-10.586-13.018 1.395-0.461 5.76 2.24 20.058 12.39 42.547 21.824 58.624 39.731 13.978 15.578 9.331 39.731-11.981 45.606-34.611 9.523-51.469-48.090-84.8-43.2 4.48-7.872 8.947-15.744 13.414-23.616 4.493 18.24 49.062 32.102 63.949 40.896 19.686 11.635 31.002 30.771 24.051 53.299-3.712 12.019-17.114 17.587-28.198 11.469-29.824-16.422-42.253-50.65-81.51-47.77 4.531-10.931 9.050-21.85 13.581-32.781 37.606 29.901 77.606 57.203 100.595 100.685 11.558 21.862-21.594 41.267-33.165 19.366v0z" />
<glyph unicode="&#xe90b;" d="M883.226 366.374c-35.11-31.667-55.552-68.736-99.315-92.198-17.907-9.6-8.269-34.522 9.69-35.776 34.406-2.394 59.968 10.88 88.883 28.224-9.395 7.219-18.803 14.451-28.198 21.67-4.941-18.97-57.472-25.946-71.667-46.618-7.296-10.624 0.358-24.704 11.469-28.198 37.274-11.738 59.725 0.87 90.79 20.339-9.395 7.219-18.803 14.451-28.198 21.67-12.813-33.894-66.701-4.941-80-43.2-9.434-27.136 31.104-31.142 46.81-30.054 10.598 0.73 22.003 2.483 31.782 6.771 35.2 15.386-15.206 21.862-32.909 19.226-14.643-2.189-56.653-17.779-39.155-41.51 13.491-18.278 36.531-19.469 57.766-20.8 28.762-1.792 12.39 22.426-10.381 24.806-14.413 1.498-30.426 2.112-39.987-10.65-15.334-20.442-5.133-41.843 16.358-51.584 33.92-15.398 43.968 7.885 70.118 16.986-7.219 2.931-14.451 5.875-21.67 8.819-14.669 24.819-96.883 1.69-70.758-33.19 27.917-37.261 61.581-33.997 100.224-14.502 22.118 11.149 2.675 44.275-19.379 33.152-54.95-27.712-55.578-16.051-17.651-18.061 13.504-0.73 22.938 4.57 33.83 11.315 15.578 9.626 14.899 27.098 6.886 40.666-4.16 7.053-13.594 11.635-21.67 8.819-9.037-3.136-13.658-6.477-20.877-12.941-30.707-27.507 18.266-19.136 27.878-16.090 20.57 6.541 22.643 30.157 15.475 46.605-2.483 5.734-10.534 9.869-16.576 9.51-11.264-0.678-20.941-5.286-31.808-5.261-7.027 0.179-13.99 0.998-20.89 2.47 0.512-5.734 1.011-11.482 1.523-17.229 9.805 1.062 19.61 2.112 29.427 3.123 23.974 2.522 40.026 14.234 48.589 36.442 2.483 6.464-0.666 13.901-4.954 18.675-18.022 20.096-46.246-2.47-66.918-6.541-21.914-4.326-29.478-21.696 0.205-21.85 9.869-0.051 18.432 2.79 27.571 6.016 20.045 7.066 31.040 20.979 38.157 39.846 6.067 16.013-14.682 30.144-28.198 21.67-18.816-11.776-32.461-25.51-61.21-16.461 3.827-9.395 7.654-18.803 11.469-28.198 19.533 28.454 64.666 13.952 75.533 55.782 4.186 16.090-13.517 30.49-28.198 21.67-23.245-13.939-41.139-24.934-69.517-22.976 3.226-11.93 6.464-23.846 9.69-35.776 47.053 25.216 69.030 63.872 107.085 98.202 18.458 16.653-8.781 43.725-27.123 27.187v0z" />
<glyph unicode="&#xe90c;" d="M32-57.6c-17.677 0-32 14.323-32 32v947.2c0 17.677 14.323 32 32 32s32-14.323 32-32v-947.2c0-17.677-14.323-32-32-32z" />
<glyph unicode="&#xe90d;" d="M985.6-64h-947.2c-17.677 0-32 14.323-32 32s14.323 32 32 32h947.2c17.677 0 32-14.323 32-32s-14.323-32-32-32z" />
<glyph unicode="&#xe90e;" d="M281.6 38.4h-128c-14.131 0-25.6 11.469-25.6 25.6v166.4c0 14.131 11.469 25.6 25.6 25.6h128c14.131 0 25.6-11.469 25.6-25.6v-166.4c0-14.131-11.469-25.6-25.6-25.6zM179.2 89.6h76.8v115.2h-76.8v-115.2z" />
<glyph unicode="&#xe90f;" d="M486.4 38.4h-128c-14.131 0-25.6 11.469-25.6 25.6v256c0 14.131 11.469 25.6 25.6 25.6h128c14.131 0 25.6-11.469 25.6-25.6v-256c0-14.131-11.469-25.6-25.6-25.6zM384 89.6h76.8v204.8h-76.8v-204.8z" />
<glyph unicode="&#xe910;" d="M691.2 38.4h-128c-14.131 0-25.6 11.469-25.6 25.6v345.6c0 14.131 11.469 25.6 25.6 25.6h128c14.131 0 25.6-11.469 25.6-25.6v-345.6c0-14.131-11.469-25.6-25.6-25.6zM588.8 89.6h76.8v294.4h-76.8v-294.4z" />
<glyph unicode="&#xe911;" d="M896 38.4h-128c-14.131 0-25.6 11.469-25.6 25.6v435.2c0 14.131 11.469 25.6 25.6 25.6h128c14.131 0 25.6-11.469 25.6-25.6v-435.2c0-14.131-11.469-25.6-25.6-25.6zM793.6 89.6h76.8v384h-76.8v-384z" />
<glyph unicode="&#xe912;" d="M486.4 537.6c-14.131 0-25.6 11.469-25.6 25.6v192c0 14.131 11.469 25.6 25.6 25.6s25.6-11.469 25.6-25.6v-192c0-14.131-11.469-25.6-25.6-25.6z" />
<glyph unicode="&#xe913;" d="M620.659 537.6c-0.128 0-0.256 0-0.371 0h-134.246c-14.131 0.205-25.434 10.88-25.242 25.011 0.205 14.144 11.75 24.666 25.958 24.768l134.246-2.125c14.131-0.205 25.434-10.061 25.242-24.192-0.192-14.016-11.622-23.462-25.587-23.462z" />
<glyph unicode="&#xe914;" d="M435.149 405.414c-3.123 0-6.285 0.576-9.357 1.792-13.158 5.171-19.635 20.032-14.451 33.19l51.251 130.278c5.184 13.158 20.032 19.61 33.19 14.451 13.158-5.171 19.635-20.032 14.451-33.19l-51.251-130.291c-3.981-10.074-13.632-16.23-23.834-16.23z" />
<glyph unicode="&#xe915;" d="M385.075 594.022c-10.586 0-20.493 6.618-24.179 17.178l-26.675 76.57c-4.646 13.35 2.406 27.955 15.744 32.602 13.35 4.634 27.955-2.406 32.602-15.744l26.675-76.57c4.646-13.35-2.406-27.955-15.744-32.602-2.79-0.973-5.632-1.434-8.422-1.434z" />
<glyph unicode="&#xe916;" d="M606.554 674.547c-6.17 0-12.378 2.227-17.293 6.733-10.419 9.549-11.123 25.741-1.574 36.173l49.344 53.837c9.549 10.419 25.754 11.136 36.173 1.574 10.419-9.549 11.123-25.741 1.574-36.173l-49.344-53.837c-5.043-5.517-11.955-8.307-18.88-8.307z" />
<glyph unicode="&#xe917;" d="M606.554 674.534c-3.494 0-7.053 0.717-10.445 2.24l-120.166 53.837c-12.902 5.786-18.675 20.928-12.89 33.83 5.773 12.902 20.928 18.688 33.83 12.89l120.154-53.837c12.915-5.786 18.675-20.928 12.902-33.83-4.275-9.485-13.619-15.13-23.386-15.13z" />
<glyph unicode="&#xe918;" d="M358.413 670.592c-9.754 0-19.072 5.606-23.347 15.078-5.824 12.877-0.090 28.045 12.8 33.869l128 57.792c12.877 5.811 28.032 0.090 33.869-12.8 5.824-12.877 0.090-28.045-12.8-33.869l-128-57.792c-3.418-1.549-7.002-2.278-10.522-2.278z" />
<glyph unicode="&#xe919;" d="M636.813 454.938c-11.251 0-21.555 7.462-24.678 18.829-3.738 13.632 4.275 27.725 17.907 31.462l54.374 14.925c13.619 3.738 27.712-4.275 31.462-17.907 3.738-13.632-4.275-27.725-17.907-31.462l-54.374-14.925c-2.266-0.627-4.544-0.922-6.784-0.922z" />
<glyph unicode="&#xe91a;" d="M335.462 380.429c-4.39 0-8.845 1.126-12.915 3.507-12.198 7.142-16.294 22.822-9.152 35.021l26.381 45.043c7.142 12.198 22.81 16.307 35.034 9.152 12.198-7.142 16.294-22.835 9.152-35.034l-26.381-45.043c-4.774-8.128-13.325-12.646-22.118-12.646z" />
<glyph unicode="&#xe91b;" d="M435.162 405.414c-2.227 0-4.506 0.294-6.758 0.922l-73.293 20.032c-13.632 3.725-21.67 17.805-17.946 31.45s17.83 21.683 31.45 17.946l73.293-20.045c13.645-3.738 21.67-17.805 17.946-31.45-3.123-11.366-13.44-18.854-24.691-18.854z" />
<glyph unicode="&#xe91c;" d="M636.8 454.938c-11.904 0-22.579 8.346-25.050 20.467l-16.179 78.886c-2.842 13.85 6.093 27.379 19.942 30.221 13.786 2.803 27.392-6.093 30.208-19.942l16.179-78.886c2.842-13.85-6.093-27.379-19.942-30.221-1.715-0.358-3.456-0.525-5.158-0.525z" />
<glyph unicode="&#xe91d;" d="M479.258 758.144c-56.858 0-103.117 45.21-103.117 100.774 0 55.552 46.259 100.749 103.117 100.749 56.87 0 103.142-45.197 103.142-100.749 0-55.565-46.259-100.774-103.142-100.774zM479.258 921.267c-35.686 0-64.717-27.968-64.717-62.349 0-34.394 29.030-62.374 64.717-62.374 35.699 0 64.742 27.981 64.742 62.374 0 34.381-29.043 62.349-64.742 62.349z" />
<glyph unicode="&#xe91e;" d="M896 537.6h-128c-10.598 0-19.2 8.589-19.2 19.2s8.602 19.2 19.2 19.2h128c10.598 0 19.2-8.589 19.2-19.2s-8.602-19.2-19.2-19.2z" />
<glyph unicode="&#xe91f;" d="M825.6 595.2c-10.598 0-19.2 8.589-19.2 19.2v320c0 10.611 8.602 19.2 19.2 19.2s19.2-8.589 19.2-19.2v-320c0-10.611-8.602-19.2-19.2-19.2z" />
<glyph unicode="&#xe920;" d="M921.6 908.8h-76.8c-7.078 0-12.8 5.734-12.8 12.8s5.722 12.8 12.8 12.8h76.8c7.078 0 12.8-5.734 12.8-12.8s-5.722-12.8-12.8-12.8z" />
<glyph unicode="&#xe921;" d="M921.6 780.8c-7.078 0-12.8 5.734-12.8 12.8v128c0 7.066 5.722 12.8 12.8 12.8s12.8-5.734 12.8-12.8v-128c0-7.066-5.722-12.8-12.8-12.8z" />
<glyph unicode="&#xe922;" d="M921.6 780.8h-76.8c-7.078 0-12.8 5.734-12.8 12.8s5.722 12.8 12.8 12.8h76.8c7.078 0 12.8-5.734 12.8-12.8s-5.722-12.8-12.8-12.8z" />
<glyph unicode="&#xe923;" d="M1011.2 857.6h-76.8c-7.078 0-12.8 5.734-12.8 12.8s5.722 12.8 12.8 12.8h76.8c7.078 0 12.8-5.734 12.8-12.8s-5.722-12.8-12.8-12.8z" />
<glyph unicode="&#xe924;" d="M995.11 801.907c-1.178 0-2.368 0.166-3.546 0.512-6.797 1.958-10.714 9.062-8.755 15.846l16.090 55.68c1.958 6.784 9.037 10.675 15.846 8.755 6.797-1.958 10.714-9.062 8.755-15.846l-16.090-55.68c-1.626-5.606-6.733-9.267-12.301-9.267z" />
<glyph unicode="&#xe925;" d="M1011.187 742.4c-5.619 0-10.79 3.75-12.339 9.446l-16.192 59.469c-1.869 6.822 2.163 13.862 8.986 15.718s13.85-2.176 15.718-8.986l16.192-59.469c1.869-6.822-2.163-13.862-8.986-15.718-1.126-0.32-2.266-0.461-3.379-0.461z" />
<glyph unicode="&#xe926;" d="M1011.2 742.4h-128c-7.078 0-12.8 5.734-12.8 12.8s5.722 12.8 12.8 12.8h128c7.078 0 12.8-5.734 12.8-12.8s-5.722-12.8-12.8-12.8z" />
<glyph unicode="&#xe927;" d="M883.2 742.4c-7.078 0-12.8 5.734-12.8 12.8v38.4c0 7.066 5.722 12.8 12.8 12.8s12.8-5.734 12.8-12.8v-38.4c0-7.066-5.722-12.8-12.8-12.8z" />
</font>
</defs>
</svg>
